<?xml version="1.0" encoding="UTF-8" standalone="no"?>
<!DOCTYPE svg PUBLIC "-//W3C//DTD SVG 1.1//EN" "http://www.w3.org/Graphics/SVG/1.1/DTD/svg11.dtd">
<svg width="100%" height="100%" viewBox="0 0 474 474" version="1.1" xmlns="http://www.w3.org/2000/svg" xmlns:xlink="http://www.w3.org/1999/xlink" xml:space="preserve" xmlns:serif="http://www.serif.com/" style="fill-rule:evenodd;clip-rule:evenodd;stroke-linejoin:round;stroke-miterlimit:2;">
    <g transform="matrix(1,0,0,1,-280.739,-53.1336)">
        <g transform="matrix(1,0,0,1,0,1)">
            <path d="M588.545,193.576C573.44,211.936 558.478,229.962 543.771,250.144C596.955,254.74 648.911,259.229 700.867,263.719C700.861,264.267 700.856,264.816 700.85,265.364C649.19,269.952 597.531,274.541 544.321,279.267C560.466,300.818 576.514,320.393 592.412,340.081C592.049,340.466 591.686,340.85 591.323,341.235C571.068,325.354 550.814,309.474 529.796,292.994C525.216,364.09 520.712,434.017 516.208,503.944C515.65,503.951 515.092,503.958 514.534,503.964C509.848,434.143 505.162,364.322 500.386,293.166C479.537,309.472 459.564,325.093 439.592,340.715C439.241,340.419 438.89,340.123 438.54,339.827C454.116,320.068 469.691,300.31 486.354,279.172C433.308,274.535 381.656,270.02 330.004,265.504C329.996,264.908 329.988,264.311 329.98,263.715C381.813,259.268 433.646,254.821 486.965,250.247C470.256,229.167 454.191,208.898 438.126,188.63C438.454,188.299 438.781,187.968 439.109,187.637C459.183,203.594 479.256,219.552 500.492,236.434C505.817,181.235 509.995,127.214 514.295,73.205C514.901,73.18 515.506,73.155 516.111,73.13C520.624,127.017 525.136,180.904 529.756,236.064C550.784,219.475 571.108,203.443 591.923,187.023C592.115,190.513 589.861,191.569 588.545,193.576Z" style="fill-rule:nonzero;"/>
        </g>
        <path d="M387.659,388.859C387.006,392.957 386.456,396.659 385.784,401.175C382.8,397.769 383.418,394.27 382.886,391.233C382.226,387.468 380.974,385.308 376.767,384.855C373.601,384.515 370.148,384.596 366.796,382.486C370.587,380.348 374.523,380.793 378.128,379.975C381.104,379.3 382.344,377.816 382.652,374.984C383.042,371.395 383.594,367.824 384.17,363.551C387.427,366.464 386.858,370.093 387.02,372.905C387.313,378 389.619,379.817 394.292,380.372C397.243,380.722 400.548,380.202 403.617,382.567C399.721,384.667 395.788,384.372 392.136,385.156C389.996,385.616 388.306,386.137 387.659,388.859Z" style="fill-rule:nonzero;"/>
        <g transform="matrix(1,0,0,1,218.349,-233.065)">
            <path d="M387.659,388.859C387.006,392.957 386.456,396.659 385.784,401.175C382.8,397.769 383.418,394.27 382.886,391.233C382.226,387.468 380.974,385.308 376.767,384.855C373.601,384.515 370.148,384.596 366.796,382.486C370.587,380.348 374.523,380.793 378.128,379.975C381.104,379.3 382.344,377.816 382.652,374.984C383.042,371.395 383.594,367.824 384.17,363.551C387.427,366.464 386.858,370.093 387.02,372.905C387.313,378 389.619,379.817 394.292,380.372C397.243,380.722 400.548,380.202 403.617,382.567C399.721,384.667 395.788,384.372 392.136,385.156C389.996,385.616 388.306,386.137 387.659,388.859Z" style="fill-rule:nonzero;"/>
        </g>
        <path d="M675.185,404.11C664.729,405.137 664.732,405.137 663.378,414.867C663.245,415.823 663.497,416.895 662.354,417.88C659.902,416.711 660.607,414.199 660.599,412.424C660.576,406.716 657.469,404.61 652.297,404.347C650.747,404.268 648.973,404.601 647.539,402.72C651.144,400.395 656.132,402.38 658.679,399.443C661.218,396.516 659.902,391.844 661.499,387.829C664.346,389.947 663.4,392.981 663.778,395.305C664.398,399.113 665.904,400.921 669.825,400.894C671.789,400.88 673.827,401.252 675.704,401.848C677.738,402.494 676.812,403.382 675.185,404.11Z" style="fill-rule:nonzero;"/>
        <path d="M355.89,152.573C356.175,151.094 356.344,149.948 358.157,148.892C358.03,156.445 361.016,160.943 369.806,160.444C361.611,161.361 357.44,165.086 357.418,173.519C356.824,165.755 353.879,160.974 345.376,161.373C349.341,158.252 356.896,160.896 355.89,152.573Z" style="fill-rule:nonzero;"/>
        <path d="M355.745,507.169C355.393,512.151 359.35,512.549 362.614,514.112C358.106,515.054 355.587,517.509 355.04,522.308C353.689,517.946 352.034,514.389 346.436,514.233C351.061,513.094 353.963,510.812 354.395,506.299C354.797,506.487 355.2,506.676 355.745,507.169Z" style="fill-rule:nonzero;"/>
        <path d="M691.671,76.26C692.248,73.326 693.778,73.265 693.96,75.677C694.279,79.913 696.895,80.795 701.147,81.142C698.009,83.992 692.217,83.254 693.691,89.57C691.621,85.748 689.911,82.575 684.587,82.501C687.568,80.02 691.861,80.728 691.671,76.26Z" style="fill-rule:nonzero;"/>
        <path d="M458.563,415.686C461.414,416.75 462.081,418.619 461.099,420.981C460.471,422.49 459.066,423.221 457.428,422.995C455.558,422.737 454.333,421.468 454.262,419.647C454.162,417.102 455.486,415.581 458.563,415.686Z" style="fill-rule:nonzero;"/>
        <path d="M296.864,365.046C299.373,364.226 301.077,364.751 301.871,367.053C302.359,368.467 301.773,369.641 300.632,370.485C299.288,371.479 297.782,371.528 296.601,370.36C294.985,368.761 294.783,366.952 296.864,365.046Z" style="fill-rule:nonzero;"/>
        <path d="M683.652,169.01C684.318,166.274 685.891,165.397 688.173,166.154C689.525,166.602 690.245,167.781 690.215,169.252C690.181,170.927 689.334,172.2 687.707,172.514C685.314,172.975 683.959,171.754 683.652,169.01Z" style="fill-rule:nonzero;"/>
        <path d="M727.607,371.617C725.751,369.829 725.701,368.2 727.251,366.67C728.435,365.501 729.901,365.397 731.298,366.264C732.521,367.023 733.096,368.228 732.594,369.636C731.8,371.862 730.198,372.612 727.607,371.617Z" style="fill-rule:nonzero;"/>
        <path d="M592.239,461.307C592.554,463.854 591.609,465.209 589.382,465.449C587.655,465.635 586.481,464.73 586.005,463.113C585.523,461.479 586.106,460.074 587.6,459.304C589.612,458.267 591.108,459.093 592.239,461.307Z" style="fill-rule:nonzero;"/>
        <path d="M410.453,219.288C412.558,217.714 414.062,218.22 415.144,220.078C415.878,221.338 415.642,222.589 414.608,223.636C413.605,224.65 412.392,225.171 411.119,224.299C409.324,223.067 409.403,221.343 410.453,219.288Z" style="fill-rule:nonzero;"/>
        <path d="M560.07,407.2C557.547,406.654 556.532,405.321 557.046,403.175C557.44,401.533 558.659,400.712 560.367,400.809C561.861,400.895 562.87,401.717 563.138,403.188C563.523,405.309 562.657,406.711 560.07,407.2Z" style="fill-rule:nonzero;"/>
        <path d="M312.809,111.08C311.765,113.962 310.105,114.76 307.897,112.87C306.765,111.901 306.727,110.346 307.875,109.382C309.992,107.606 311.769,108.052 312.809,111.08Z" style="fill-rule:nonzero;"/>
        <path d="M631.933,312.051C631.462,314.639 630.191,315.656 628.079,314.398C626.788,313.628 626.477,312.117 627.511,310.977C629.134,309.185 630.682,309.691 631.933,312.051Z" style="fill-rule:nonzero;"/>
        <path d="M636.995,222.396C638.358,220.497 639.803,219.974 641.108,221.836C642.011,223.125 641.525,224.539 640.072,225.085C638.032,225.853 636.946,224.865 636.995,222.396Z" style="fill-rule:nonzero;"/>
        <path d="M565.348,122.858C565.823,120.359 566.979,119.326 569.073,120.749C570.124,121.463 570.341,122.714 569.507,123.729C567.966,125.606 566.537,125.343 565.348,122.858Z" style="fill-rule:nonzero;"/>
        <g transform="matrix(0.854341,0,0,0.854341,79.7045,42.111)">
            <rect x="235.31" y="12.902" width="553.769" height="553.769" style="fill:none;"/>
        </g>
    </g>
</svg>
